# xmcd CD database file
#
# Track frame offsets:
#	150
#	13623
#	30374
#	44209
#	63105
#	81713
#	97831
#	113489
#	128194
#	142877
#	157495
#	178571
#	192451
#	215741
#	231299
#	245498
#	263755
#
# Disc length: 3780 seconds
#
# Revision: 2
# Processed by: cddbd v1.4PL0 Copyright (c) Steve Scherf et al.
# Submitted via: Feurio! 1.66 - http://www.feurio.com
#
DISCID=f20ec211
DTITLE=Isar Rider - Heit is a Tag
DYEAR=1900
DGENRE=blues
TTITLE0=Bei so am Wetta
TTITLE1=Pepe
TTITLE2=Mei Oma
TTITLE3=Heit is a Tag
TTITLE4=Du g´herst zu mir
TTITLE5=Des wird scho wieda guat
TTITLE6=Koa Maler auf der Welt
TTITLE7=Und hinter mir fahrt d´ Schmier
TTITLE8=Jessolo
TTITLE9=I hob koane Nerven mehr
TTITLE10=Modorradl fahrn
TTITLE11=Zuppa Romana
TTITLE12=Scheisse, i werd oid
TTITLE13=I sitz am Klo
TTITLE14=Fussschweiss
TTITLE15=Schens Madl
TTITLE16=Omoi im Leben
EXTD=
EXTT0=
EXTT1=
EXTT2=
EXTT3=
EXTT4=
EXTT5=
EXTT6=
EXTT7=
EXTT8=
EXTT9=
EXTT10=
EXTT11=
EXTT12=
EXTT13=
EXTT14=
EXTT15=
EXTT16=
PLAYORDER=
